<svg width="47" height="47" viewBox="0 0 47 47" fill="none" xmlns="http://www.w3.org/2000/svg">
<path d="M23.7141 1.97656V8.08267" stroke="black" stroke-width="1.48226" stroke-linecap="round" stroke-linejoin="round"/>
<path d="M23.7141 39.3499V45.456" stroke="black" stroke-width="1.48226" stroke-linecap="round" stroke-linejoin="round"/>
<path d="M10.9138 32.0404L5.62578 35.0935" stroke="black" stroke-width="1.48226" stroke-linecap="round" stroke-linejoin="round"/>
<path d="M10.9138 15.3926L5.62578 12.3395" stroke="black" stroke-width="1.48226" stroke-linecap="round" stroke-linejoin="round"/>
<path d="M37.203 32.0404L42.491 35.0935" stroke="black" stroke-width="1.48226" stroke-linecap="round" stroke-linejoin="round"/>
<path d="M37.203 15.3926L42.491 12.3395" stroke="black" stroke-width="1.48226" stroke-linecap="round" stroke-linejoin="round"/>
<path d="M12.5668 23.7546C12.5668 20.4551 15.0768 17.6972 18.3617 17.3874L19.6414 17.2667C22.3507 17.0112 25.078 17.0112 27.7872 17.2667L29.0639 17.3871C32.3505 17.6971 34.8619 20.4564 34.8619 23.7576V24.2224C34.8619 26.7375 33.2313 28.9623 30.8329 29.7196V29.7196C29.1536 30.2498 27.3302 30.0652 25.7912 29.2094L24.6321 28.5647C24.0616 28.2475 23.3675 28.2483 22.7978 28.567L21.6699 29.198C20.1271 30.061 18.2968 30.2496 16.6105 29.7192V29.7192C14.2039 28.9624 12.5668 26.7313 12.5668 24.2085V23.7546Z" stroke="black" stroke-width="1.48226"/>
<path d="M27.3588 22.2311L26.2089 22.1289C24.55 21.9814 22.8814 21.9814 21.2226 22.1289L20.0709 22.2313" stroke="black" stroke-width="1.48226" stroke-linecap="round"/>
<path d="M18.7748 4.57701L23.7156 1.97656L28.6565 4.57701" stroke="black" stroke-width="1.48226" stroke-linecap="round" stroke-linejoin="round"/>
<path d="M37.5505 38.1747L42.4914 35.5743V29.6453" stroke="black" stroke-width="1.48226" stroke-linecap="round" stroke-linejoin="round"/>
<path d="M9.88116 9.25769L4.94031 11.8581V17.7872" stroke="black" stroke-width="1.48226" stroke-linecap="round" stroke-linejoin="round"/>
<path d="M9.88116 38.1747L4.94031 35.5743V29.6453" stroke="black" stroke-width="1.48226" stroke-linecap="round" stroke-linejoin="round"/>
<path d="M18.7748 42.8555L23.7156 45.4559L28.6565 42.8555" stroke="black" stroke-width="1.48226" stroke-linecap="round" stroke-linejoin="round"/>
<path d="M37.5505 9.25769L42.4914 11.8581V17.7872" stroke="black" stroke-width="1.48226" stroke-linecap="round" stroke-linejoin="round"/>
</svg>
