<svg width="73" height="72" viewBox="0 0 73 72" fill="none" xmlns="http://www.w3.org/2000/svg">
<path fill-rule="evenodd" clip-rule="evenodd" d="M36.5 71.8337C16.4624 71.8337 0.218756 55.7905 0.218752 36.0003C0.218751 16.2101 16.4624 0.166991 36.5 0.166991C56.5376 0.166986 72.7813 16.2101 72.7813 36.0003C72.7813 55.7905 56.5376 71.8337 36.5 71.8337ZM30.4914 25.8992L22.0539 34.2326C21.0654 35.2089 21.0654 36.7918 22.0539 37.7681L30.4914 46.1014C31.4799 47.0777 33.0826 47.0777 34.0711 46.1014C35.0596 45.1251 35.0596 43.5422 34.0711 42.5659L29.9547 38.5003L49.1563 38.5003C50.5542 38.5003 51.6875 37.381 51.6875 36.0003C51.6875 34.6196 50.5542 33.5003 49.1563 33.5003L29.9547 33.5003L34.0711 29.4348C35.0596 28.4585 35.0596 26.8755 34.0711 25.8992C33.0826 24.9229 31.4799 24.9229 30.4914 25.8992Z" fill="black"/>
</svg>
