<svg width="73" height="72" viewBox="0 0 73 72" fill="none" xmlns="http://www.w3.org/2000/svg">
<path fill-rule="evenodd" clip-rule="evenodd" d="M36.5 0.166675C56.5376 0.166674 72.7812 16.2098 72.7812 36C72.7812 55.7902 56.5376 71.8333 36.5 71.8333C16.4624 71.8333 0.218749 55.7902 0.218747 36C0.218746 16.2098 16.4624 0.166678 36.5 0.166675ZM42.5086 46.1011L50.9461 37.7678C51.9346 36.7915 51.9346 35.2086 50.9461 34.2322L42.5086 25.8989C41.5201 24.9226 39.9174 24.9226 38.9289 25.8989C37.9404 26.8752 37.9404 28.4581 38.9289 29.4344L43.0453 33.5L23.8437 33.5C22.4458 33.5 21.3125 34.6193 21.3125 36C21.3125 37.3807 22.4458 38.5 23.8437 38.5L43.0453 38.5L38.9289 42.5656C37.9404 43.5419 37.9404 45.1248 38.9289 46.1011C39.9174 47.0774 41.5201 47.0774 42.5086 46.1011Z" fill="black"/>
</svg>
