<svg width="58" height="41" viewBox="0 0 58 41" fill="none" xmlns="http://www.w3.org/2000/svg">
<path d="M18.8494 1.69289C13.2062 0.397938 6.86733 3.33357 5.75389 9.06661L1.52867 30.822C0.807709 34.5342 3.08102 38.1716 6.73369 39.1503C10.0235 40.0318 13.481 38.4879 15.0205 35.4499L21.1672 24.0182H29H36.8327L42.9794 35.4499C44.5189 38.4879 47.9764 40.0318 51.2662 39.1503C54.9189 38.1716 57.1922 34.5342 56.4713 30.822L52.246 9.06661C51.1326 3.33357 44.7937 0.39794 39.1505 1.69289H18.8494Z" fill="#434343"/>
<path fill-rule="evenodd" clip-rule="evenodd" d="M18.8495 1.69291H39.1505C44.7938 0.397959 51.1326 3.33359 52.2461 9.06663L56.4713 30.8221C57.1922 34.5342 54.9189 38.1716 51.2663 39.1504C47.9765 40.0319 44.519 38.4879 42.9794 35.4499L36.8328 24.0183H21.1672L15.0206 35.4499C13.481 38.4879 10.0235 40.0319 6.73373 39.1504C3.08105 38.1716 0.807745 34.5342 1.5287 30.8221L5.75392 9.06663C6.86737 3.33359 13.2062 0.397957 18.8495 1.69291ZM16.2572 36.0964C14.4154 39.7127 10.2942 41.5489 6.37259 40.4981C2.01212 39.3298 -0.701699 34.9875 0.158961 30.556L4.38418 8.8006C5.68027 2.12713 12.8665 -1.02881 19.0029 0.297574H38.9971C45.1335 -1.02881 52.3197 2.12713 53.6158 8.8006L57.841 30.556C58.7017 34.9875 55.9879 39.3298 51.6274 40.4981C47.7058 41.5489 43.5846 39.7127 41.7428 36.0964L35.9988 25.4136H22.0012L16.2572 36.0964Z" fill="#0F0F0F"/>
<path d="M18.8495 1.69289C13.2063 0.397938 6.86741 3.33357 5.75397 9.06661L2.70969 24.7414C2.15362 27.7646 2.19226 33.6061 6.62285 34.1599C9.41352 34.5088 11.5065 33.1134 14.2972 28.9274L21.1673 17.7392H36.7555L43.6256 28.9274C46.4163 33.1134 48.5093 34.5088 51.3 34.1599C55.7306 33.6061 55.7692 27.7646 55.2131 24.7414L52.1689 9.06661C51.0554 3.33357 44.7165 0.397938 39.0733 1.69289H18.8495Z" fill="#535353"/>
<path d="M18.7236 13.374C16.91 17.6272 12.9975 20.0337 9.98479 18.749C6.97212 17.4643 6.00011 12.975 7.81376 8.72182C9.62741 4.46864 13.5399 2.06218 16.5526 3.34685C19.5653 4.63151 20.5373 9.12083 18.7236 13.374Z" fill="#686868"/>
<path fill-rule="evenodd" clip-rule="evenodd" d="M14.2614 2.89301C14.3832 3.25854 14.1857 3.65365 13.8201 3.77549C11.8426 4.43467 8.84829 6.00879 8.00462 10.2271C7.48027 12.8489 6.95607 15.2951 6.47634 17.5193C6.4279 17.7439 6.37993 17.9661 6.33247 18.186C5.90932 20.1465 5.52644 21.9204 5.21395 23.4828C5.13839 23.8606 4.77084 24.1057 4.39301 24.0301C4.01518 23.9545 3.77015 23.587 3.84571 23.2092C4.16042 21.6356 4.54568 19.8507 4.96828 17.8928C5.01585 17.6724 5.0639 17.4498 5.11237 17.2251C5.59193 15.0017 6.11423 12.5642 6.63638 9.95348C7.62 5.03539 11.1704 3.18792 13.3789 2.45176C13.7444 2.32992 14.1395 2.52747 14.2614 2.89301Z" fill="#888888"/>
<path fill-rule="evenodd" clip-rule="evenodd" d="M11.3757 4.10477C11.6003 4.41786 11.5286 4.85373 11.2155 5.07833C9.83806 6.06645 8.52181 7.64119 8.0046 10.2272C7.92904 10.6051 7.56149 10.8501 7.18366 10.7745C6.80583 10.699 6.5608 10.3314 6.63636 9.9536C7.23045 6.98317 8.77034 5.11516 10.4022 3.94455C10.7152 3.71996 11.1511 3.79169 11.3757 4.10477Z" fill="#B7B7B7"/>
<path d="M15.6924 5.90442C15.3071 5.90442 14.9947 6.21678 14.9947 6.60209V10.0904H11.5064C11.1211 10.0904 10.8087 10.4028 10.8087 10.7881V12.1834C10.8087 12.5687 11.1211 12.8811 11.5064 12.8811H14.9947V16.3694C14.9947 16.7547 15.3071 17.0671 15.6924 17.0671H17.0877C17.473 17.0671 17.7854 16.7547 17.7854 16.3694V12.8811H21.2737C21.659 12.8811 21.9714 12.5687 21.9714 12.1834V10.7881C21.9714 10.4028 21.659 10.0904 21.2737 10.0904H17.7854V6.60209C17.7854 6.21678 17.473 5.90442 17.0877 5.90442H15.6924Z" fill="#5A5A5A"/>
<path fill-rule="evenodd" clip-rule="evenodd" d="M13.5995 6.60204C13.5995 5.4461 14.5365 4.50903 15.6925 4.50903H17.0878C18.2437 4.50903 19.1808 5.4461 19.1808 6.60204V8.69504H21.2738C22.4297 8.69504 23.3668 9.63211 23.3668 10.788V12.1834C23.3668 13.3393 22.4297 14.2764 21.2738 14.2764H19.1808V16.3694C19.1808 17.5253 18.2437 18.4624 17.0878 18.4624H15.6925C14.5365 18.4624 13.5995 17.5253 13.5995 16.3694V14.2764H11.5065C10.3505 14.2764 9.41345 13.3393 9.41345 12.1834V10.788C9.41345 9.63211 10.3505 8.69504 11.5065 8.69504H13.5995V6.60204ZM14.9948 6.60204C14.9948 6.21672 15.3071 5.90437 15.6925 5.90437H17.0878C17.4731 5.90437 17.7855 6.21672 17.7855 6.60204V10.0904H21.2738C21.6591 10.0904 21.9715 10.4027 21.9715 10.788V12.1834C21.9715 12.5687 21.6591 12.881 21.2738 12.881H17.7855V16.3694C17.7855 16.7547 17.4731 17.067 17.0878 17.067H15.6925C15.3071 17.067 14.9948 16.7547 14.9948 16.3694V12.881H11.5065C11.1211 12.881 10.8088 12.5687 10.8088 12.1834V10.788C10.8088 10.4027 11.1211 10.0904 11.5065 10.0904H14.9948V6.60204Z" fill="#222222"/>
<path fill-rule="evenodd" clip-rule="evenodd" d="M15.6924 5.90442C16.0777 5.90442 16.3901 6.21678 16.3901 6.60209V10.7881C16.3901 11.1734 16.0777 11.4858 15.6924 11.4858H11.5064C11.1211 11.4858 10.8087 11.1734 10.8087 10.7881C10.8087 10.4028 11.1211 10.0904 11.5064 10.0904H14.9947V6.60209C14.9947 6.21678 15.3071 5.90442 15.6924 5.90442Z" fill="#8C8C8C"/>
<path d="M42.9014 7.29975C42.9014 8.07038 42.2767 8.69509 41.5061 8.69509C40.7354 8.69509 40.1107 8.07038 40.1107 7.29975C40.1107 6.52913 40.7354 5.90442 41.5061 5.90442C42.2767 5.90442 42.9014 6.52913 42.9014 7.29975Z" fill="#BE62E9"/>
<path fill-rule="evenodd" clip-rule="evenodd" d="M44.2968 7.2997C44.2968 8.84095 43.0474 10.0904 41.5061 10.0904C39.9649 10.0904 38.7155 8.84095 38.7155 7.2997C38.7155 5.75846 39.9649 4.50903 41.5061 4.50903C43.0474 4.50903 44.2968 5.75846 44.2968 7.2997ZM41.5061 8.69504C42.2767 8.69504 42.9015 8.07032 42.9015 7.2997C42.9015 6.52908 42.2767 5.90437 41.5061 5.90437C40.7355 5.90437 40.1108 6.52908 40.1108 7.2997C40.1108 8.07032 40.7355 8.69504 41.5061 8.69504Z" fill="#222222"/>
<path d="M42.9014 15.6717C42.9014 16.4423 42.2767 17.067 41.5061 17.067C40.7354 17.067 40.1107 16.4423 40.1107 15.6717C40.1107 14.9011 40.7354 14.2764 41.5061 14.2764C42.2767 14.2764 42.9014 14.9011 42.9014 15.6717Z" fill="#9DE962"/>
<path fill-rule="evenodd" clip-rule="evenodd" d="M44.2968 15.6717C44.2968 17.2129 43.0474 18.4623 41.5061 18.4623C39.9649 18.4623 38.7155 17.2129 38.7155 15.6717C38.7155 14.1304 39.9649 12.881 41.5061 12.881C43.0474 12.881 44.2968 14.1304 44.2968 15.6717ZM41.5061 17.067C42.2767 17.067 42.9015 16.4423 42.9015 15.6717C42.9015 14.901 42.2767 14.2763 41.5061 14.2763C40.7355 14.2763 40.1108 14.901 40.1108 15.6717C40.1108 16.4423 40.7355 17.067 41.5061 17.067Z" fill="#222222"/>
<path d="M38.7155 11.4857C38.7155 12.2563 38.0908 12.881 37.3201 12.881C36.5495 12.881 35.9248 12.2563 35.9248 11.4857C35.9248 10.715 36.5495 10.0903 37.3201 10.0903C38.0908 10.0903 38.7155 10.715 38.7155 11.4857Z" fill="#E9CB62"/>
<path fill-rule="evenodd" clip-rule="evenodd" d="M40.1108 11.4857C40.1108 13.027 38.8613 14.2764 37.3201 14.2764C35.7788 14.2764 34.5294 13.027 34.5294 11.4857C34.5294 9.94449 35.7788 8.69507 37.3201 8.69507C38.8613 8.69507 40.1108 9.94449 40.1108 11.4857ZM37.3201 12.8811C38.0907 12.8811 38.7154 12.2564 38.7154 11.4857C38.7154 10.7151 38.0907 10.0904 37.3201 10.0904C36.5495 10.0904 35.9248 10.7151 35.9248 11.4857C35.9248 12.2564 36.5495 12.8811 37.3201 12.8811Z" fill="#222222"/>
<path d="M47.0874 11.4857C47.0874 12.2563 46.4627 12.881 45.6921 12.881C44.9215 12.881 44.2968 12.2563 44.2968 11.4857C44.2968 10.715 44.9215 10.0903 45.6921 10.0903C46.4627 10.0903 47.0874 10.715 47.0874 11.4857Z" fill="#62D0E9"/>
<path fill-rule="evenodd" clip-rule="evenodd" d="M48.4827 11.4857C48.4827 13.027 47.2333 14.2764 45.692 14.2764C44.1508 14.2764 42.9014 13.027 42.9014 11.4857C42.9014 9.94449 44.1508 8.69507 45.692 8.69507C47.2333 8.69507 48.4827 9.94449 48.4827 11.4857ZM45.692 12.8811C46.4627 12.8811 47.0874 12.2564 47.0874 11.4857C47.0874 10.7151 46.4627 10.0904 45.692 10.0904C44.9214 10.0904 44.2967 10.7151 44.2967 11.4857C44.2967 12.2564 44.9214 12.8811 45.692 12.8811Z" fill="#222222"/>
<path d="M54.2253 25.999C54.2418 26.384 53.9431 26.7094 53.5581 26.7259C53.1731 26.7424 52.8477 26.4437 52.8312 26.0587C52.8148 25.6738 53.1135 25.3483 53.4984 25.3319C53.8834 25.3154 54.2088 25.6141 54.2253 25.999Z" fill="#434343"/>
<path d="M49.2864 24.8139C49.3029 25.1988 49.0042 25.5242 48.6193 25.5407C48.2343 25.5572 47.9089 25.2585 47.8924 24.8735C47.8759 24.4886 48.1746 24.1632 48.5596 24.1467C48.9445 24.1302 49.27 24.4289 49.2864 24.8139Z" fill="#434343"/>
<path d="M49.8343 21.2988C49.8508 21.6838 49.5521 22.0092 49.1671 22.0257C48.7822 22.0422 48.4567 21.7435 48.4402 21.3585C48.4238 20.9736 48.7225 20.6481 49.1074 20.6317C49.4924 20.6152 49.8178 20.9139 49.8343 21.2988Z" fill="#434343"/>
<path d="M49.685 17.8137C49.7015 18.1987 49.4028 18.5241 49.0178 18.5406C48.6329 18.5571 48.3074 18.2584 48.2909 17.8734C48.2745 17.4885 48.5732 17.163 48.9581 17.1466C49.3431 17.1301 49.6685 17.4288 49.685 17.8137Z" fill="#434343"/>
<path d="M51.6568 14.9361C51.6733 15.321 51.3746 15.6464 50.9896 15.6629C50.6047 15.6794 50.2792 15.3807 50.2628 14.9957C50.2463 14.6108 50.545 14.2853 50.9299 14.2689C51.3149 14.2524 51.6403 14.5511 51.6568 14.9361Z" fill="#434343"/>
<path d="M52.5627 19.7854C52.5792 20.1704 52.2805 20.4958 51.8955 20.5123C51.5105 20.5288 51.1851 20.2301 51.1686 19.8451C51.1522 19.4601 51.4509 19.1347 51.8358 19.1182C52.2208 19.1017 52.5462 19.4005 52.5627 19.7854Z" fill="#434343"/>
<path d="M54.3746 29.4841C54.3911 29.8691 54.0924 30.1945 53.7074 30.211C53.3224 30.2275 52.997 29.9288 52.9805 29.5438C52.964 29.1589 53.2628 28.8334 53.6477 28.817C54.0327 28.8005 54.3581 29.0992 54.3746 29.4841Z" fill="#434343"/>
<path d="M52.2238 28.1796C52.2567 28.9495 51.6593 29.6004 50.8894 29.6333C50.1195 29.6663 49.4686 29.0689 49.4357 28.299C49.4027 27.529 50.0001 26.8782 50.77 26.8452C51.54 26.8123 52.1908 27.4097 52.2238 28.1796Z" fill="#434343"/>
<path d="M52.7269 23.6191C52.7516 24.1965 52.3036 24.6847 51.7261 24.7094C51.1487 24.7341 50.6605 24.2861 50.6358 23.7086C50.6111 23.1312 51.0592 22.643 51.6366 22.6183C52.214 22.5936 52.7022 23.0417 52.7269 23.6191Z" fill="#434343"/>
<path fill-rule="evenodd" clip-rule="evenodd" d="M19.1808 3.11368C19.1808 2.72837 19.4931 2.41602 19.8785 2.41602H33.1341C33.5194 2.41602 33.8318 2.72837 33.8318 3.11368C33.8318 3.49899 33.5194 3.81135 33.1341 3.81135H19.8785C19.4931 3.81135 19.1808 3.49899 19.1808 3.11368Z" fill="#888888"/>
</svg>
