<svg width="39" height="37" viewBox="0 0 39 37" fill="none" xmlns="http://www.w3.org/2000/svg">
<g filter="url(#filter0_d_167_2242)">
<path d="M17.0828 23.1502C16.8225 21.9041 17.727 20.625 19 20.625V20.625C20.273 20.625 21.1775 21.9041 20.9172 23.1502C20.673 24.3192 20.5135 25.6823 20.75 26.75C21.413 29.7434 24.25 32.875 24.25 32.875H13.75C13.75 32.875 16.587 29.7434 17.25 26.75C17.4865 25.6823 17.327 24.3192 17.0828 23.1502Z" fill="black"/>
<path fill-rule="evenodd" clip-rule="evenodd" d="M25.0499 33.2297C24.9096 33.546 24.5961 33.75 24.25 33.75H13.75C13.404 33.75 13.0904 33.546 12.9501 33.2297C12.8099 32.9134 12.8692 32.5442 13.1014 32.2877L13.75 32.875H24.25C24.25 32.875 23.9522 32.5463 23.527 32C22.6399 30.8603 21.1982 28.7736 20.75 26.75C20.5135 25.6823 20.673 24.3192 20.9172 23.1502C21.1776 21.9041 20.273 20.625 19 20.625C17.727 20.625 16.8225 21.9041 17.0828 23.1502C17.327 24.3192 17.4865 25.6823 17.25 26.75C16.8018 28.7736 15.3602 30.8603 14.473 32C14.0478 32.5463 13.75 32.875 13.75 32.875M13.1014 32.2877L13.1063 32.2822L13.1267 32.2593C13.1453 32.2383 13.1736 32.206 13.2105 32.1632C13.2843 32.0776 13.3921 31.9503 13.5243 31.7874C13.7892 31.4612 14.1496 30.9955 14.5294 30.4407C15.3019 29.3123 16.1008 27.8922 16.3957 26.5608C16.59 25.6838 16.4656 24.4744 16.2263 23.3291C15.8694 21.621 17.0915 19.75 19 19.75C20.9086 19.75 22.1306 21.621 21.7737 23.3291C21.5345 24.4744 21.4101 25.6838 21.6043 26.5608C21.8992 27.8922 22.6981 29.3123 23.4707 30.4407C23.8504 30.9955 24.2108 31.4612 24.4757 31.7874C24.6079 31.9503 24.7157 32.0776 24.7895 32.1632C24.8264 32.206 24.8547 32.2383 24.8733 32.2593L24.8937 32.2822L24.8985 32.2875C25.1307 32.544 25.1902 32.9134 25.0499 33.2297" fill="black"/>
<path fill-rule="evenodd" clip-rule="evenodd" d="M22.5 32.875H24.25C24.25 32.875 21.413 29.7434 20.75 26.75C20.5135 25.6823 20.673 24.3192 20.9172 23.1502C21.1775 21.9041 20.273 20.625 19 20.625C18.7122 20.625 18.4433 20.6904 18.2023 20.806C18.8438 21.1105 19.1672 21.8259 19.1672 23.1502C19.1672 24.8165 19.201 27.2135 19.4375 28.2813C20.1005 31.2747 22.5 32.875 22.5 32.875Z" fill="black"/>
<path fill-rule="evenodd" clip-rule="evenodd" d="M17.5748 28.2944C17.8093 28.353 17.9518 28.5906 17.8932 28.825C17.6595 29.7595 17.1973 30.6803 16.739 31.3678C16.605 31.5688 16.3333 31.6232 16.1323 31.4891C15.9313 31.3551 15.8769 31.0835 16.011 30.8824C16.4276 30.2574 16.8404 29.4282 17.0443 28.6127C17.1029 28.3783 17.3404 28.2358 17.5748 28.2944Z" fill="black"/>
<path fill-rule="evenodd" clip-rule="evenodd" d="M31.6875 13.625C34.3454 13.625 36.5 11.4704 36.5 8.8125C36.5 6.15463 34.3454 4 31.6875 4C29.0296 4 26.875 6.15463 26.875 8.8125C26.875 11.4704 29.0296 13.625 31.6875 13.625ZM31.6875 11.4375C33.1372 11.4375 34.3125 10.2622 34.3125 8.8125C34.3125 7.36275 33.1372 6.1875 31.6875 6.1875C30.2378 6.1875 29.0625 7.36275 29.0625 8.8125C29.0625 10.2622 30.2378 11.4375 31.6875 11.4375Z" fill="black"/>
<path fill-rule="evenodd" clip-rule="evenodd" d="M37.375 8.8125C37.375 11.9536 34.8286 14.5 31.6875 14.5C28.5464 14.5 26 11.9536 26 8.8125C26 5.67138 28.5464 3.125 31.6875 3.125C34.8286 3.125 37.375 5.67138 37.375 8.8125ZM31.6875 10.5625C32.654 10.5625 33.4375 9.779 33.4375 8.8125C33.4375 7.846 32.654 7.0625 31.6875 7.0625C30.721 7.0625 29.9375 7.846 29.9375 8.8125C29.9375 9.779 30.721 10.5625 31.6875 10.5625ZM36.5 8.8125C36.5 11.4704 34.3454 13.625 31.6875 13.625C29.0296 13.625 26.875 11.4704 26.875 8.8125C26.875 6.15463 29.0296 4 31.6875 4C34.3454 4 36.5 6.15463 36.5 8.8125ZM34.3125 8.8125C34.3125 10.2622 33.1372 11.4375 31.6875 11.4375C30.2378 11.4375 29.0625 10.2622 29.0625 8.8125C29.0625 7.36275 30.2378 6.1875 31.6875 6.1875C33.1372 6.1875 34.3125 7.36275 34.3125 8.8125Z" fill="black"/>
<path fill-rule="evenodd" clip-rule="evenodd" d="M36.0625 7.9375C36.0625 10.5954 33.9078 12.75 31.25 12.75C29.5397 12.75 28.0377 11.8578 27.1842 10.5135C27.8714 12.3319 29.6284 13.625 31.6875 13.625C34.3453 13.625 36.5 11.4704 36.5 8.8125C36.5 7.86494 36.2261 6.98134 35.7532 6.23653C35.9531 6.76538 36.0625 7.33867 36.0625 7.9375ZM29.161 9.52728C29.0968 9.30004 29.0625 9.06028 29.0625 8.8125C29.0625 7.36275 30.2377 6.1875 31.6875 6.1875C32.5396 6.1875 33.2969 6.59355 33.7765 7.22272C33.4652 6.12036 32.4519 5.3125 31.25 5.3125C29.8002 5.3125 28.625 6.48775 28.625 7.9375C28.625 8.5351 28.8247 9.08606 29.161 9.52728Z" fill="black"/>
<path fill-rule="evenodd" clip-rule="evenodd" d="M6.3125 13.625C8.97037 13.625 11.125 11.4704 11.125 8.8125C11.125 6.15463 8.97037 4 6.3125 4C3.65463 4 1.5 6.15463 1.5 8.8125C1.5 11.4704 3.65463 13.625 6.3125 13.625ZM6.3125 11.4375C7.76225 11.4375 8.9375 10.2622 8.9375 8.8125C8.9375 7.36275 7.76225 6.1875 6.3125 6.1875C4.86275 6.1875 3.6875 7.36275 3.6875 8.8125C3.6875 10.2622 4.86275 11.4375 6.3125 11.4375Z" fill="black"/>
<path fill-rule="evenodd" clip-rule="evenodd" d="M12 8.8125C12 11.9536 9.45362 14.5 6.3125 14.5C3.17138 14.5 0.625 11.9536 0.625 8.8125C0.625 5.67138 3.17138 3.125 6.3125 3.125C9.45362 3.125 12 5.67138 12 8.8125ZM6.3125 10.5625C7.279 10.5625 8.0625 9.779 8.0625 8.8125C8.0625 7.846 7.279 7.0625 6.3125 7.0625C5.346 7.0625 4.5625 7.846 4.5625 8.8125C4.5625 9.779 5.346 10.5625 6.3125 10.5625ZM11.125 8.8125C11.125 11.4704 8.97037 13.625 6.3125 13.625C3.65463 13.625 1.5 11.4704 1.5 8.8125C1.5 6.15463 3.65463 4 6.3125 4C8.97037 4 11.125 6.15463 11.125 8.8125ZM8.9375 8.8125C8.9375 10.2622 7.76225 11.4375 6.3125 11.4375C4.86275 11.4375 3.6875 10.2622 3.6875 8.8125C3.6875 7.36275 4.86275 6.1875 6.3125 6.1875C7.76225 6.1875 8.9375 7.36275 8.9375 8.8125Z" fill="black"/>
<path fill-rule="evenodd" clip-rule="evenodd" d="M9.92721 11.9897C9.0796 12.7353 7.96761 13.1875 6.75 13.1875C4.09213 13.1875 1.9375 11.0328 1.9375 8.37496C1.9375 7.15735 2.38969 6.04536 3.13529 5.19775C2.13269 6.0797 1.5 7.3722 1.5 8.81246C1.5 11.4703 3.65463 13.625 6.3125 13.625C7.75276 13.625 9.04526 12.9923 9.92721 11.9897ZM4.68795 6.75041C5.13484 6.39785 5.6991 6.18746 6.3125 6.18746C7.76225 6.18746 8.9375 7.36271 8.9375 8.81246C8.9375 9.42586 8.72711 9.99012 8.37455 10.437C8.98387 9.95631 9.375 9.21131 9.375 8.37496C9.375 6.92521 8.19975 5.74996 6.75 5.74996C5.91365 5.74996 5.16866 6.14109 4.68795 6.75041Z" fill="black"/>
<path d="M6.75 6.625C6.75 4.692 8.317 3.125 10.25 3.125H27.75C29.683 3.125 31.25 4.692 31.25 6.625V11.875C31.25 18.6405 25.7655 24.125 19 24.125C12.2345 24.125 6.75 18.6405 6.75 11.875V6.625Z" fill="black"/>
<path fill-rule="evenodd" clip-rule="evenodd" d="M10.25 2.25H27.75C30.1662 2.25 32.125 4.20875 32.125 6.625V11.875C32.125 19.1237 26.2487 25 19 25C11.7513 25 5.875 19.1237 5.875 11.875V6.625C5.875 4.20875 7.83375 2.25 10.25 2.25ZM10.25 3.125C8.317 3.125 6.75 4.692 6.75 6.625V11.875C6.75 18.6405 12.2345 24.125 19 24.125C25.7655 24.125 31.25 18.6405 31.25 11.875V6.625C31.25 4.692 29.683 3.125 27.75 3.125H10.25Z" fill="black"/>
<path fill-rule="evenodd" clip-rule="evenodd" d="M15.9375 23.7391C16.9163 23.991 17.9425 24.125 19 24.125C25.7655 24.125 31.25 18.6405 31.25 11.875V3.125H25.125V11.875C25.125 17.583 21.221 22.3792 15.9375 23.7391Z" fill="black"/>
<path d="M6.75 3.125V11.875C6.75 16.0513 8.83987 19.7394 12.0309 21.9507C13.5487 23.0026 16.4306 19.3954 16.3831 17.5493C16.3776 17.3352 16.375 17.1206 16.375 16.9062V3.125H6.75Z" fill="black"/>
<path fill-rule="evenodd" clip-rule="evenodd" d="M12.6712 22.3656C14.5183 23.4823 16.6841 24.125 19 24.125C25.7655 24.125 31.25 18.6405 31.25 11.875V3.125H29.4999V11C29.4999 17.7655 24.0154 23.25 17.2499 23.25C15.6311 23.25 14.0857 22.936 12.6712 22.3656Z" fill="black"/>
<path d="M31.25 3.125H6.75V4.875H31.25V3.125Z" fill="black"/>
<path fill-rule="evenodd" clip-rule="evenodd" d="M8.5 4.4375C8.98325 4.4375 9.375 4.82925 9.375 5.3125C9.375 8.28708 9.3768 10.6801 9.64034 12.6039C9.90283 14.5202 10.409 15.8278 11.3062 16.725C11.6479 17.0668 11.6479 17.6208 11.3062 17.9625C10.9644 18.3042 10.4104 18.3042 10.0687 17.9625C8.77845 16.6722 8.19089 14.9173 7.90653 12.8414C7.62498 10.7861 7.62499 8.27597 7.625 5.36779L7.625 5.3125C7.625 4.82925 8.01675 4.4375 8.5 4.4375Z" fill="white"/>
<path fill-rule="evenodd" clip-rule="evenodd" d="M8.50003 5.75C8.74165 5.75 8.93753 5.94588 8.93753 6.1875C8.93753 6.76267 8.93268 7.10472 8.92874 7.38261C8.92274 7.80555 8.91885 8.07986 8.93738 8.80127C8.94358 9.04282 8.7528 9.24365 8.51125 9.24986C8.26971 9.25606 8.06887 9.06528 8.06267 8.82373C8.0438 8.08879 8.04791 7.79119 8.05398 7.35206C8.05786 7.07174 8.06253 6.73375 8.06253 6.1875C8.06253 5.94588 8.2584 5.75 8.50003 5.75Z" fill="black"/>
<path d="M10.25 33.75C10.25 33.2668 10.6418 32.875 11.125 32.875H26.875C27.3583 32.875 27.75 33.2668 27.75 33.75V33.75C27.75 34.2332 27.3583 34.625 26.875 34.625H11.125C10.6418 34.625 10.25 34.2332 10.25 33.75V33.75Z" fill="black"/>
<path fill-rule="evenodd" clip-rule="evenodd" d="M11.125 32H26.875C27.8415 32 28.625 32.7835 28.625 33.75C28.625 34.7165 27.8415 35.5 26.875 35.5H11.125C10.1585 35.5 9.375 34.7165 9.375 33.75C9.375 32.7835 10.1585 32 11.125 32ZM11.125 32.875C10.6418 32.875 10.25 33.2668 10.25 33.75C10.25 34.2332 10.6418 34.625 11.125 34.625H26.875C27.3582 34.625 27.75 34.2332 27.75 33.75C27.75 33.2668 27.3582 32.875 26.875 32.875H11.125Z" fill="black"/>
<path d="M3.25 2.25C3.25 1.76675 3.64175 1.375 4.125 1.375H33.875C34.3583 1.375 34.75 1.76675 34.75 2.25V2.25C34.75 2.73325 34.3583 3.125 33.875 3.125H4.125C3.64175 3.125 3.25 2.73325 3.25 2.25V2.25Z" fill="black"/>
<path fill-rule="evenodd" clip-rule="evenodd" d="M4.125 0.5H33.875C34.8415 0.5 35.625 1.2835 35.625 2.25C35.625 3.2165 34.8415 4 33.875 4H4.125C3.1585 4 2.375 3.2165 2.375 2.25C2.375 1.2835 3.1585 0.5 4.125 0.5ZM4.125 1.375C3.64175 1.375 3.25 1.76675 3.25 2.25C3.25 2.73325 3.64175 3.125 4.125 3.125H33.875C34.3583 3.125 34.75 2.73325 34.75 2.25C34.75 1.76675 34.3583 1.375 33.875 1.375H4.125Z" fill="black"/>
<path fill-rule="evenodd" clip-rule="evenodd" d="M4.125 2.03125C4.125 1.78963 4.32088 1.59375 4.5625 1.59375H26.875C27.1166 1.59375 27.3125 1.78963 27.3125 2.03125C27.3125 2.27287 27.1166 2.46875 26.875 2.46875H4.5625C4.32088 2.46875 4.125 2.27287 4.125 2.03125Z" fill="white"/>
<path fill-rule="evenodd" clip-rule="evenodd" d="M10.6875 33.3125C10.6875 33.0709 10.8834 32.875 11.125 32.875H23.8125C24.0541 32.875 24.25 33.0709 24.25 33.3125C24.25 33.5541 24.0541 33.75 23.8125 33.75H11.125C10.8834 33.75 10.6875 33.5541 10.6875 33.3125Z" fill="white"/>
<path fill-rule="evenodd" clip-rule="evenodd" d="M6.75 2.03125C6.75 1.78963 6.94588 1.59375 7.1875 1.59375H9.8125C10.0541 1.59375 10.25 1.78963 10.25 2.03125C10.25 2.27287 10.0541 2.46875 9.8125 2.46875H7.1875C6.94588 2.46875 6.75 2.27287 6.75 2.03125Z" fill="black"/>
<path d="M23.375 20.8438C23.375 21.2062 23.0812 21.5 22.7188 21.5C22.3563 21.5 22.0625 21.2062 22.0625 20.8438C22.0625 20.4813 22.3563 20.1875 22.7188 20.1875C23.0812 20.1875 23.375 20.4813 23.375 20.8438Z" fill="black"/>
<path d="M25.5625 19.3125C25.5625 19.5541 25.3666 19.75 25.125 19.75C24.8834 19.75 24.6875 19.5541 24.6875 19.3125C24.6875 19.0709 24.8834 18.875 25.125 18.875C25.3666 18.875 25.5625 19.0709 25.5625 19.3125Z" fill="black"/>
<path d="M22.0625 22.375C22.0625 22.6166 21.8666 22.8125 21.625 22.8125C21.3834 22.8125 21.1875 22.6166 21.1875 22.375C21.1875 22.1334 21.3834 21.9375 21.625 21.9375C21.8666 21.9375 22.0625 22.1334 22.0625 22.375Z" fill="black"/>
<path d="M20.75 21.0625C20.75 21.3041 20.5541 21.5 20.3125 21.5C20.0709 21.5 19.875 21.3041 19.875 21.0625C19.875 20.8209 20.0709 20.625 20.3125 20.625C20.5541 20.625 20.75 20.8209 20.75 21.0625Z" fill="black"/>
<path d="M19 22.375C19 22.6166 18.8041 22.8125 18.5625 22.8125C18.3209 22.8125 18.125 22.6166 18.125 22.375C18.125 22.1334 18.3209 21.9375 18.5625 21.9375C18.8041 21.9375 19 22.1334 19 22.375Z" fill="black"/>
<path d="M29.5 16.25C29.5 16.4916 29.3041 16.6875 29.0625 16.6875C28.8209 16.6875 28.625 16.4916 28.625 16.25C28.625 16.0084 28.8209 15.8125 29.0625 15.8125C29.3041 15.8125 29.5 16.0084 29.5 16.25Z" fill="black"/>
<path d="M25.5625 17.5625C25.5625 17.8041 25.3666 18 25.125 18C24.8834 18 24.6875 17.8041 24.6875 17.5625C24.6875 17.3209 24.8834 17.125 25.125 17.125C25.3666 17.125 25.5625 17.3209 25.5625 17.5625Z" fill="black"/>
<path d="M29.9375 14.0625C29.9375 14.3041 29.7416 14.5 29.5 14.5C29.2584 14.5 29.0625 14.3041 29.0625 14.0625C29.0625 13.8209 29.2584 13.625 29.5 13.625C29.7416 13.625 29.9375 13.8209 29.9375 14.0625Z" fill="black"/>
<path d="M23.375 18.4375C23.375 18.6791 23.1791 18.875 22.9375 18.875C22.6959 18.875 22.5 18.6791 22.5 18.4375C22.5 18.1959 22.6959 18 22.9375 18C23.1791 18 23.375 18.1959 23.375 18.4375Z" fill="black"/>
<path d="M25.125 21.0625C25.125 21.3041 24.9291 21.5 24.6875 21.5C24.4459 21.5 24.25 21.3041 24.25 21.0625C24.25 20.8209 24.4459 20.625 24.6875 20.625C24.9291 20.625 25.125 20.8209 25.125 21.0625Z" fill="black"/>
<path d="M27.75 19.3125C27.75 19.5541 27.5541 19.75 27.3125 19.75C27.0709 19.75 26.875 19.5541 26.875 19.3125C26.875 19.0709 27.0709 18.875 27.3125 18.875C27.5541 18.875 27.75 19.0709 27.75 19.3125Z" fill="black"/>
<path d="M26.875 17.5625C26.875 17.8041 26.6791 18 26.4375 18C26.1959 18 26 17.8041 26 17.5625C26 17.3209 26.1959 17.125 26.4375 17.125C26.6791 17.125 26.875 17.3209 26.875 17.5625Z" fill="black"/>
<path d="M28.625 17.3438C28.625 17.4646 28.5271 17.5625 28.4063 17.5625C28.2854 17.5625 28.1875 17.4646 28.1875 17.3438C28.1875 17.2229 28.2854 17.125 28.4063 17.125C28.5271 17.125 28.625 17.2229 28.625 17.3438Z" fill="black"/>
<path d="M28.1875 15.5938C28.1875 15.7146 28.0896 15.8125 27.9688 15.8125C27.8479 15.8125 27.75 15.7146 27.75 15.5938C27.75 15.4729 27.8479 15.375 27.9688 15.375C28.0896 15.375 28.1875 15.4729 28.1875 15.5938Z" fill="black"/>
<path d="M26.875 16.0313C26.875 16.1521 26.7771 16.25 26.6563 16.25C26.5354 16.25 26.4375 16.1521 26.4375 16.0313C26.4375 15.9104 26.5354 15.8125 26.6563 15.8125C26.7771 15.8125 26.875 15.9104 26.875 16.0313Z" fill="black"/>
<path d="M28.1875 14.2813C28.1875 14.4021 28.0896 14.5 27.9688 14.5C27.8479 14.5 27.75 14.4021 27.75 14.2813C27.75 14.1604 27.8479 14.0625 27.9688 14.0625C28.0896 14.0625 28.1875 14.1604 28.1875 14.2813Z" fill="black"/>
<path d="M25.5625 16.0313C25.5625 16.1521 25.4646 16.25 25.3438 16.25C25.2229 16.25 25.125 16.1521 25.125 16.0313C25.125 15.9104 25.2229 15.8125 25.3438 15.8125C25.4646 15.8125 25.5625 15.9104 25.5625 16.0313Z" fill="black"/>
<path d="M18.5625 20.8438C18.5625 20.9646 18.4646 21.0625 18.3438 21.0625C18.2229 21.0625 18.125 20.9646 18.125 20.8438C18.125 20.7229 18.2229 20.625 18.3438 20.625C18.4646 20.625 18.5625 20.7229 18.5625 20.8438Z" fill="black"/>
<path d="M27.75 17.7813C27.75 17.9021 27.6521 18 27.5313 18C27.4104 18 27.3125 17.9021 27.3125 17.7813C27.3125 17.6604 27.4104 17.5625 27.5313 17.5625C27.6521 17.5625 27.75 17.6604 27.75 17.7813Z" fill="black"/>
<path d="M26.4375 20.4063C26.4375 20.5271 26.3396 20.625 26.2188 20.625C26.0979 20.625 26 20.5271 26 20.4063C26 20.2854 26.0979 20.1875 26.2188 20.1875C26.3396 20.1875 26.4375 20.2854 26.4375 20.4063Z" fill="black"/>
<path d="M24.25 19.5313C24.25 19.6521 24.1521 19.75 24.0313 19.75C23.9104 19.75 23.8125 19.6521 23.8125 19.5313C23.8125 19.4104 23.9104 19.3125 24.0313 19.3125C24.1521 19.3125 24.25 19.4104 24.25 19.5313Z" fill="black"/>
<path d="M22.0625 19.5313C22.0625 19.6521 21.9646 19.75 21.8438 19.75C21.7229 19.75 21.625 19.6521 21.625 19.5313C21.625 19.4104 21.7229 19.3125 21.8438 19.3125C21.9646 19.3125 22.0625 19.4104 22.0625 19.5313Z" fill="black"/>
<path d="M20.3125 22.5938C20.3125 22.7146 20.2146 22.8125 20.0938 22.8125C19.9729 22.8125 19.875 22.7146 19.875 22.5938C19.875 22.4729 19.9729 22.375 20.0938 22.375C20.2146 22.375 20.3125 22.4729 20.3125 22.5938Z" fill="black"/>
<path fill-rule="evenodd" clip-rule="evenodd" d="M5.17264 4.8982C5.28069 5.11432 5.19309 5.37711 4.97697 5.48516C4.57707 5.6851 4.03835 6.02971 3.60001 6.61416C3.16618 7.19258 2.8125 8.0296 2.8125 9.2501C2.8125 9.49172 2.61662 9.6876 2.375 9.6876C2.13338 9.6876 1.9375 9.49172 1.9375 9.2501C1.9375 7.84559 2.34944 6.82323 2.90001 6.08916C3.44606 5.36111 4.1105 4.9401 4.58568 4.70253C4.8018 4.59448 5.06459 4.68208 5.17264 4.8982Z" fill="#FFD953"/>
<path d="M14.625 11.7L17.3594 11.1458L18.1797 9.76042L19 8.375L20.6406 11.1458L23.375 11.7L21.1875 13.9167L21.7344 16.6875L19 15.3021L16.2656 16.6875L16.8125 13.9167L14.625 11.7Z" fill="white"/>
<path fill-rule="evenodd" clip-rule="evenodd" d="M17.3594 11.1458L19 8.375L20.6406 11.1458L23.375 11.7L21.1875 13.9167L21.7344 16.6875L19 15.3021L16.2656 16.6875L16.8125 13.9167L14.625 11.7L17.3594 11.1458ZM15.8644 14.2016L14.0022 12.3146C13.7766 12.0859 13.6944 11.752 13.7881 11.4447C13.8818 11.1375 14.1364 10.9062 14.4512 10.8424L16.8046 10.3655L18.2471 7.92919C18.4046 7.66316 18.6908 7.5 19 7.5C19.3092 7.5 19.5954 7.66316 19.7529 7.92919L21.1955 10.3655L23.5488 10.8424C23.8637 10.9062 24.1182 11.1375 24.212 11.4447C24.3057 11.752 24.2235 12.0859 23.9978 12.3146L22.1356 14.2016L22.5928 16.5181C22.6576 16.8464 22.5295 17.1829 22.2628 17.3849C21.9961 17.587 21.6374 17.6193 21.3389 17.468L19 16.283L16.6611 17.468C16.3626 17.6193 16.004 17.587 15.7373 17.3849C15.4705 17.1829 15.3424 16.8464 15.4072 16.5181L15.8644 14.2016Z" fill="black"/>
<path fill-rule="evenodd" clip-rule="evenodd" d="M19.1956 9.73378C19.4117 9.84184 19.4993 10.1046 19.3913 10.3208L18.5163 12.0708C18.4499 12.2035 18.3208 12.2935 18.1733 12.3099L16.2045 12.5287C15.9644 12.5554 15.7481 12.3823 15.7214 12.1422C15.6947 11.902 15.8678 11.6857 16.1079 11.659L17.8401 11.4666L18.6087 9.92944C18.7167 9.71332 18.9795 9.62573 19.1956 9.73378Z" fill="black"/>
</g>
<defs>
<filter id="filter0_d_167_2242" x="0.625" y="0.5" width="37.9167" height="36.1667" filterUnits="userSpaceOnUse" color-interpolation-filters="sRGB">
<feFlood flood-opacity="0" result="BackgroundImageFix"/>
<feColorMatrix in="SourceAlpha" type="matrix" values="0 0 0 0 0 0 0 0 0 0 0 0 0 0 0 0 0 0 127 0" result="hardAlpha"/>
<feOffset dx="1.16667" dy="1.16667"/>
<feComposite in2="hardAlpha" operator="out"/>
<feColorMatrix type="matrix" values="0 0 0 0 0 0 0 0 0 0 0 0 0 0 0 0 0 0 0.2 0"/>
<feBlend mode="normal" in2="BackgroundImageFix" result="effect1_dropShadow_167_2242"/>
<feBlend mode="normal" in="SourceGraphic" in2="effect1_dropShadow_167_2242" result="shape"/>
</filter>
</defs>
</svg>
