<svg width="15" height="18" viewBox="0 0 15 18" fill="none" xmlns="http://www.w3.org/2000/svg">
<path fill-rule="evenodd" clip-rule="evenodd" d="M3.59146 4.19513C3.59146 2.12406 5.27039 0.445129 7.34146 0.445129C9.41253 0.445129 11.0915 2.12406 11.0915 4.19513C11.0915 6.2662 9.41253 7.94513 7.34146 7.94513C5.27039 7.94513 3.59146 6.2662 3.59146 4.19513Z" fill="black"/>
<path fill-rule="evenodd" clip-rule="evenodd" d="M0.467501 15.9496C0.531951 12.2081 3.58478 9.19513 7.34146 9.19513C11.0982 9.19513 14.1511 12.2082 14.2154 15.9498C14.2197 16.198 14.0767 16.4251 13.8512 16.5286C11.8687 17.4383 9.66356 17.9451 7.34173 17.9451C5.01968 17.9451 2.81432 17.4382 0.83173 16.5284C0.606172 16.4249 0.463226 16.1977 0.467501 15.9496Z" fill="black"/>
</svg>
